REM DIRINDEX 1\2,1\3\5,1\3\6,1\4\7,1\4\8
REM DIRNAME cjc139,folder01,folder02,folder03,folder04,folder05,folder06,folder07
TITLE ""
FILE "EG_E1.5_13.mp3" MP3
  TRACK 01 AUDIO
    TITLE "0:"
    INDEX 01 00:00:00
  TRACK 02 AUDIO
    TITLE "2:cjc139_0470"
    INDEX 01 00:00:17
  TRACK 03 AUDIO
    TITLE "0:"
    INDEX 01 00:03:21
  TRACK 04 AUDIO
    TITLE "2:cjc139_0471"
    INDEX 01 00:04:44
  TRACK 05 AUDIO
    TITLE "0:"
    INDEX 01 00:08:13
  TRACK 06 AUDIO
    TITLE "2:cjc139_0472"
    INDEX 01 00:09:36
  TRACK 07 AUDIO
    TITLE "0:"
    INDEX 01 00:13:47
  TRACK 08 AUDIO
    TITLE "2:cjc139_0473"
    INDEX 01 00:14:68
  TRACK 09 AUDIO
    TITLE "0:"
    INDEX 01 00:18:37
  TRACK 10 AUDIO
    TITLE "2:cjc139_0474"
    INDEX 01 00:19:62
  TRACK 11 AUDIO
    TITLE "0:"
    INDEX 01 00:23:55
  TRACK 12 AUDIO
    TITLE "2:cjc139_0475"
    INDEX 01 00:25:01
  TRACK 13 AUDIO
    TITLE "0:"
    INDEX 01 00:29:09
  TRACK 14 AUDIO
    TITLE "2:cjc139_0476"
    INDEX 01 00:30:32
  TRACK 15 AUDIO
    TITLE "0:"
    INDEX 01 00:33:26
  TRACK 16 AUDIO
    TITLE "2:cjc139_0477"
    INDEX 01 00:34:49
  TRACK 17 AUDIO
    TITLE "0:"
    INDEX 01 00:38:04
  TRACK 18 AUDIO
    TITLE "2:cjc139_0478"
    INDEX 01 00:39:27
  TRACK 19 AUDIO
    TITLE "0:"
    INDEX 01 00:43:23
  TRACK 20 AUDIO
    TITLE "2:cjc139_0479"
    INDEX 01 00:44:46
  TRACK 21 AUDIO
    TITLE "0:"
    INDEX 01 00:48:08
  TRACK 22 AUDIO
    TITLE "2:cjc139_0480"
    INDEX 01 00:49:29
  TRACK 23 AUDIO
    TITLE "0:"
    INDEX 01 00:52:57
  TRACK 24 AUDIO
    TITLE "2:cjc139_0481"
    INDEX 01 00:54:05
  TRACK 25 AUDIO
    TITLE "0:"
    INDEX 01 00:58:07
  TRACK 26 AUDIO
    TITLE "2:cjc139_0482"
    INDEX 01 00:59:30
  TRACK 27 AUDIO
    TITLE "0:"
    INDEX 01 01:03:45
  TRACK 28 AUDIO
    TITLE "2:cjc139_0483"
    INDEX 01 01:04:68
  TRACK 29 AUDIO
    TITLE "0:"
    INDEX 01 01:07:74
  TRACK 30 AUDIO
    TITLE "2:cjc139_0484"
    INDEX 01 01:09:16
  TRACK 31 AUDIO
    TITLE "0:"
    INDEX 01 01:12:11
  TRACK 32 AUDIO
    TITLE "2:cjc139_0485"
    INDEX 01 01:13:32
  TRACK 33 AUDIO
    TITLE "0:"
    INDEX 01 01:18:07
  TRACK 34 AUDIO
    TITLE "2:cjc139_0486"
    INDEX 01 01:19:30
  TRACK 35 AUDIO
    TITLE "0:"
    INDEX 01 01:22:52
  TRACK 36 AUDIO
    TITLE "2:cjc139_0487"
    INDEX 01 01:24:02
  TRACK 37 AUDIO
    TITLE "0:"
    INDEX 01 01:26:05
  TRACK 38 AUDIO
    TITLE "2:cjc139_0488"
    INDEX 01 01:27:28
  TRACK 39 AUDIO
    TITLE "0:"
    INDEX 01 01:29:56
  TRACK 40 AUDIO
    TITLE "2:cjc139_0489"
    INDEX 01 01:31:02
  TRACK 41 AUDIO
    TITLE "0:"
    INDEX 01 01:33:56
  TRACK 42 AUDIO
    TITLE "2:cjc139_0490"
    INDEX 01 01:35:04
  TRACK 43 AUDIO
    TITLE "0:"
    INDEX 01 01:38:26
  TRACK 44 AUDIO
    TITLE "2:cjc139_0491"
    INDEX 01 01:39:47
  TRACK 45 AUDIO
    TITLE "0:"
    INDEX 01 01:43:39
  TRACK 46 AUDIO
    TITLE "2:cjc139_0492"
    INDEX 01 01:44:60
  TRACK 47 AUDIO
    TITLE "0:"
    INDEX 01 01:48:01
  TRACK 48 AUDIO
    TITLE "2:cjc139_0493"
    INDEX 01 01:49:22
  TRACK 49 AUDIO
    TITLE "0:"
    INDEX 01 01:53:53
  TRACK 50 AUDIO
    TITLE "2:cjc139_0494"
    INDEX 01 01:54:74
  TRACK 51 AUDIO
    TITLE "0:"
    INDEX 01 01:58:30
  TRACK 52 AUDIO
    TITLE "2:cjc139_0495"
    INDEX 01 01:59:51
  TRACK 53 AUDIO
    TITLE "0:"
    INDEX 01 02:03:43
  TRACK 54 AUDIO
    TITLE "2:cjc139_0496"
    INDEX 01 02:04:64
  TRACK 55 AUDIO
    TITLE "0:"
    INDEX 01 02:08:62
  TRACK 56 AUDIO
    TITLE "2:cjc139_0497"
    INDEX 01 02:10:10
  TRACK 57 AUDIO
    TITLE "0:"
    INDEX 01 02:14:10
  TRACK 58 AUDIO
    TITLE "2:cjc139_0498"
    INDEX 01 02:15:33
  TRACK 59 AUDIO
    TITLE "0:"
    INDEX 01 02:19:40
  TRACK 60 AUDIO
    TITLE "2:cjc139_0499"
    INDEX 01 02:20:61
  TRACK 61 AUDIO
    TITLE "0:"
    INDEX 01 02:24:73
  TRACK 62 AUDIO
    TITLE "2:cjc139_0500"
    INDEX 01 02:26:19
  TRACK 63 AUDIO
    TITLE "0:"
    INDEX 01 02:27:22
  TRACK 64 AUDIO
    TITLE "2:cjc139_0501"
    INDEX 01 02:28:45
  TRACK 65 AUDIO
    TITLE "0:"
    INDEX 01 02:30:52
  TRACK 66 AUDIO
    TITLE "2:cjc139_0502"
    INDEX 01 02:31:71
  TRACK 67 AUDIO
    TITLE "0:"
    INDEX 01 02:33:74
  TRACK 68 AUDIO
    TITLE "2:cjc139_0503"
    INDEX 01 02:35:22
  TRACK 69 AUDIO
    TITLE "0:"
    INDEX 01 02:39:26
  TRACK 70 AUDIO
    TITLE "2:cjc139_0504"
    INDEX 01 02:40:52
  TRACK 71 AUDIO
    TITLE "0:"
    INDEX 01 02:44:21
  TRACK 72 AUDIO
    TITLE "2:cjc139_0505"
    INDEX 01 02:45:42
  TRACK 73 AUDIO
    TITLE "0:"
    INDEX 01 02:49:20
  TRACK 74 AUDIO
    TITLE "2:cjc139_0506"
    INDEX 01 02:50:41
  TRACK 75 AUDIO
    TITLE "0:"
    INDEX 01 02:54:02
  TRACK 76 AUDIO
    TITLE "2:cjc139_0507"
    INDEX 01 02:55:23
  TRACK 77 AUDIO
    TITLE "0:"
    INDEX 01 02:57:43
  TRACK 78 AUDIO
    TITLE "2:cjc139_0508"
    INDEX 01 02:58:64
  TRACK 79 AUDIO
    TITLE "0:"
    INDEX 01 03:01:02
  TRACK 80 AUDIO
    TITLE "2:cjc139_0509"
    INDEX 01 03:02:25
  TRACK 81 AUDIO
    TITLE "0:"
    INDEX 01 03:04:37
